# Blender v2.79 (sub 0) OBJ File: 'sala_6.blend'
# www.blender.org
mtllib sala_6.mtl
o Wall.005_Cube.002
v -7.000000 0.000000 -7.000000
v -7.500000 2.000000 -7.500000
v 0.000000 0.000000 -7.000000
v 0.000000 2.000000 -7.500000
v -9.000000 0.000000 -9.000000
v -8.500000 2.000000 -8.500000
v 0.000000 0.000000 -9.000000
v 0.000000 2.000000 -8.500000
vt 0.000000 0.000000
vt 0.000000 1.000000
vt 1.000000 1.000000
vt 1.000000 0.000000
vt 0.000000 0.000000
vt 0.000000 1.000000
vt 1.000000 1.000000
vt 1.000000 0.000000
vt 0.000000 0.000000
vt 0.000000 1.000000
vt 1.000000 1.000000
vt 1.000000 0.000000
vt 0.000000 0.000000
vt 0.000000 1.000000
vt 1.000000 1.000000
vt 1.000000 0.000000
vt 1.000000 1.000000
vt 1.000000 0.000000
vt 0.000000 0.000000
vt 0.000000 1.000000
vn 0.0000 0.2425 0.9701
vn 1.0000 0.0000 0.0000
vn 0.0000 0.2425 -0.9701
vn -0.7071 0.0000 0.7071
vn 0.0000 -1.0000 0.0000
vn 0.0000 1.0000 0.0000
usemtl Material.004
s off
f 1/1/1 3/2/1 4/3/1 2/4/1
f 3/5/2 7/6/2 8/7/2 4/8/2
f 7/9/3 5/10/3 6/11/3 8/12/3
f 5/13/4 1/14/4 2/15/4 6/16/4
f 3/5/5 1/14/5 5/17/5 7/18/5
f 8/19/6 6/20/6 2/15/6 4/8/6
o Wall.003_Cube.010
v 9.000000 0.000000 -9.000000
v 8.500000 2.000000 -8.500000
v 9.000000 0.000000 0.000000
v 8.500000 2.000000 0.000000
v 7.000000 0.000000 -7.000000
v 7.500000 2.000000 -7.500000
v 7.000000 0.000000 0.000000
v 7.500000 2.000000 0.000000
vt 0.000000 0.000000
vt 1.000000 0.000000
vt 1.000000 1.000000
vt 0.000000 1.000000
vt 0.000000 0.000000
vt 1.000000 0.000000
vt 1.000000 1.000000
vt 0.000000 1.000000
vt 0.000000 0.000000
vt 1.000000 0.000000
vt 1.000000 1.000000
vt 0.000000 1.000000
vt 0.000000 0.000000
vt 1.000000 0.000000
vt 1.000000 1.000000
vt 0.000000 1.000000
vt 1.000000 0.000000
vt 1.000000 1.000000
vt 0.000000 0.000000
vt 0.000000 1.000000
vn 0.9701 0.2425 0.0000
vn 0.0000 0.0000 1.0000
vn -0.9701 0.2425 0.0000
vn -0.7071 0.0000 -0.7071
vn 0.0000 -1.0000 0.0000
vn 0.0000 1.0000 0.0000
usemtl Material.012
s off
f 9/21/7 10/22/7 12/23/7 11/24/7
f 11/25/8 12/26/8 16/27/8 15/28/8
f 15/29/9 16/30/9 14/31/9 13/32/9
f 13/33/10 14/34/10 10/35/10 9/36/10
f 11/25/11 15/37/11 13/38/11 9/36/11
f 16/39/12 12/26/12 10/35/12 14/40/12
o Wall.000_Cube.011
v 9.000000 0.000000 9.000000
v 8.500000 2.000000 8.500000
v 1.000000 0.000000 9.000000
v 1.000000 2.000000 8.500000
v 7.000000 0.000000 7.000000
v 7.500000 2.000000 7.500000
v 1.000000 0.000000 7.000000
v 1.000000 2.000000 7.500000
vt 0.000000 0.000000
vt 1.000000 0.000000
vt 1.000000 1.000000
vt 0.000000 1.000000
vt 0.000000 0.000000
vt 1.000000 0.000000
vt 1.000000 1.000000
vt 0.000000 1.000000
vt 0.000000 0.000000
vt 1.000000 0.000000
vt 1.000000 1.000000
vt 0.000000 1.000000
vt 0.000000 0.000000
vt 1.000000 0.000000
vt 1.000000 1.000000
vt 0.000000 1.000000
vt 1.000000 0.000000
vt 1.000000 1.000000
vt 0.000000 0.000000
vt 0.000000 1.000000
vn 0.0000 0.2425 0.9701
vn -1.0000 0.0000 0.0000
vn 0.0000 0.2425 -0.9701
vn 0.7071 0.0000 -0.7071
vn 0.0000 -1.0000 0.0000
vn 0.0000 1.0000 0.0000
usemtl Material.013
s off
f 17/41/13 18/42/13 20/43/13 19/44/13
f 19/45/14 20/46/14 24/47/14 23/48/14
f 23/49/15 24/50/15 22/51/15 21/52/15
f 21/53/16 22/54/16 18/55/16 17/56/16
f 19/45/17 23/57/17 21/58/17 17/56/17
f 24/59/18 20/46/18 18/55/18 22/60/18
o Wall.001_Cube.012
v 7.000000 0.000000 7.000000
v 7.500000 2.000000 7.500000
v 7.000000 0.000000 0.000000
v 7.500000 2.000000 0.000000
v 9.000000 0.000000 9.000000
v 8.500000 2.000000 8.500000
v 9.000000 0.000000 0.000000
v 8.500000 2.000000 0.002173
vt 0.000000 0.000000
vt 1.000000 0.000000
vt 1.000000 1.000000
vt 0.000000 1.000000
vt 0.000000 0.000000
vt 1.000000 0.000000
vt 1.000000 1.000000
vt 0.000000 1.000000
vt 0.000000 0.000000
vt 1.000000 0.000000
vt 1.000000 1.000000
vt 0.000000 1.000000
vt 0.000000 0.000000
vt 1.000000 0.000000
vt 1.000000 1.000000
vt 0.000000 1.000000
vt 1.000000 0.000000
vt 1.000000 1.000000
vt 0.000000 0.000000
vt 0.000000 1.000000
vn -0.9701 0.2425 0.0000
vn 0.0007 0.0005 -1.0000
vn 0.9701 0.2425 0.0000
vn -0.7071 0.0000 0.7071
vn 0.0000 -1.0000 0.0000
vn 0.0000 1.0000 0.0000
usemtl Material.014
s off
f 25/61/19 26/62/19 28/63/19 27/64/19
f 27/65/20 28/66/20 32/67/20 31/68/20
f 31/69/21 32/70/21 30/71/21 29/72/21
f 29/73/22 30/74/22 26/75/22 25/76/22
f 27/65/23 31/77/23 29/78/23 25/76/23
f 32/79/24 28/66/24 26/75/24 30/80/24
o Wall.002_Cube.014
v 7.000000 0.000000 -7.000000
v 7.500000 2.000000 -7.500000
v 0.000000 0.000000 -7.000000
v 0.000000 2.000000 -7.500000
v 9.000000 0.000000 -9.000000
v 8.500000 2.000000 -8.500000
v 0.000000 0.000000 -9.000000
v 0.000000 2.000000 -8.500000
vt 0.000000 0.000000
vt 1.000000 0.000000
vt 1.000000 1.000000
vt 0.000000 1.000000
vt 0.000000 0.000000
vt 1.000000 0.000000
vt 1.000000 1.000000
vt 0.000000 1.000000
vt 0.000000 0.000000
vt 1.000000 0.000000
vt 1.000000 1.000000
vt 0.000000 1.000000
vt 0.000000 0.000000
vt 1.000000 0.000000
vt 1.000000 1.000000
vt 0.000000 1.000000
vt 1.000000 0.000000
vt 1.000000 1.000000
vt 0.000000 0.000000
vt 0.000000 1.000000
vn 0.0000 0.2425 0.9701
vn -1.0000 0.0000 0.0000
vn 0.0000 0.2425 -0.9701
vn 0.7071 0.0000 0.7071
vn 0.0000 -1.0000 0.0000
vn 0.0000 1.0000 0.0000
usemtl Material.016
s off
f 33/81/25 34/82/25 36/83/25 35/84/25
f 35/85/26 36/86/26 40/87/26 39/88/26
f 39/89/27 40/90/27 38/91/27 37/92/27
f 37/93/28 38/94/28 34/95/28 33/96/28
f 35/85/29 39/97/29 37/98/29 33/96/29
f 40/99/30 36/86/30 34/95/30 38/100/30
o Wall.004_Cube.015
v -9.000000 0.000000 -9.000000
v -8.500000 2.000000 -8.500000
v -9.000000 0.000000 -1.000000
v -8.500000 2.000000 -1.000000
v -7.000000 0.000000 -7.000000
v -7.500000 2.000000 -7.500000
v -7.000000 0.000000 -1.000000
v -7.500000 2.000000 -1.000000
vt 0.000000 0.000000
vt 0.000000 1.000000
vt 1.000000 1.000000
vt 1.000000 0.000000
vt 0.000000 0.000000
vt 0.000000 1.000000
vt 1.000000 1.000000
vt 1.000000 0.000000
vt 0.000000 0.000000
vt 0.000000 1.000000
vt 1.000000 1.000000
vt 1.000000 0.000000
vt 0.000000 0.000000
vt 0.000000 1.000000
vt 1.000000 1.000000
vt 1.000000 0.000000
vt 1.000000 1.000000
vt 1.000000 0.000000
vt 0.000000 0.000000
vt 0.000000 1.000000
vn -0.9701 0.2425 0.0000
vn 0.0000 0.0000 1.0000
vn 0.9701 0.2425 -0.0000
vn 0.7071 0.0000 -0.7071
vn 0.0000 -1.0000 0.0000
vn 0.0000 1.0000 0.0000
usemtl Material.017
s off
f 41/101/31 43/102/31 44/103/31 42/104/31
f 43/105/32 47/106/32 48/107/32 44/108/32
f 47/109/33 45/110/33 46/111/33 48/112/33
f 45/113/34 41/114/34 42/115/34 46/116/34
f 43/105/35 41/114/35 45/117/35 47/118/35
f 48/119/36 46/120/36 42/115/36 44/108/36
o Wall.006_Cube.016
v -9.000000 0.000000 9.000000
v -8.500000 2.000000 8.500000
v -9.000000 0.000000 1.000000
v -8.500000 2.000000 1.000000
v -7.000000 0.000000 7.000000
v -7.500000 2.000000 7.500000
v -7.000000 0.000000 1.000000
v -7.500000 2.000000 1.000000
vt 0.000000 0.000000
vt 1.000000 0.000000
vt 1.000000 1.000000
vt 0.000000 1.000000
vt 0.000000 0.000000
vt 1.000000 0.000000
vt 1.000000 1.000000
vt 0.000000 1.000000
vt 0.000000 0.000000
vt 1.000000 0.000000
vt 1.000000 1.000000
vt 0.000000 1.000000
vt 0.000000 0.000000
vt 1.000000 0.000000
vt 1.000000 1.000000
vt 0.000000 1.000000
vt 1.000000 0.000000
vt 1.000000 1.000000
vt 0.000000 0.000000
vt 0.000000 1.000000
vn -0.9701 0.2425 0.0000
vn 0.0000 0.0000 -1.0000
vn 0.9701 0.2425 -0.0000
vn 0.7071 0.0000 0.7071
vn 0.0000 -1.0000 0.0000
vn 0.0000 1.0000 0.0000
usemtl Material.018
s off
f 49/121/37 50/122/37 52/123/37 51/124/37
f 51/125/38 52/126/38 56/127/38 55/128/38
f 55/129/39 56/130/39 54/131/39 53/132/39
f 53/133/40 54/134/40 50/135/40 49/136/40
f 51/125/41 55/137/41 53/138/41 49/136/41
f 56/139/42 52/126/42 50/135/42 54/140/42
o Wall.007_Cube.017
v -7.000000 0.000000 7.000000
v -7.500000 2.000000 7.500000
v -1.000000 0.000000 7.000000
v -1.000000 2.000000 7.500000
v -9.000000 0.000000 9.000000
v -8.500000 2.000000 8.500000
v -1.000000 0.000000 9.000000
v -1.000000 2.000000 8.500000
vt 0.000000 0.000000
vt 1.000000 0.000000
vt 1.000000 1.000000
vt 0.000000 1.000000
vt 0.000000 0.000000
vt 1.000000 0.000000
vt 1.000000 1.000000
vt 0.000000 1.000000
vt 0.000000 0.000000
vt 1.000000 0.000000
vt 1.000000 1.000000
vt 0.000000 1.000000
vt 0.000000 0.000000
vt 1.000000 0.000000
vt 1.000000 1.000000
vt 0.000000 1.000000
vt 1.000000 0.000000
vt 1.000000 1.000000
vt 0.000000 0.000000
vt 0.000000 1.000000
vn 0.0000 0.2425 -0.9701
vn 1.0000 0.0000 0.0000
vn 0.0000 0.2425 0.9701
vn -0.7071 0.0000 -0.7071
vn 0.0000 -1.0000 0.0000
vn 0.0000 1.0000 0.0000
usemtl Material.019
s off
f 57/141/43 58/142/43 60/143/43 59/144/43
f 59/145/44 60/146/44 64/147/44 63/148/44
f 63/149/45 64/150/45 62/151/45 61/152/45
f 61/153/46 62/154/46 58/155/46 57/156/46
f 59/145/47 63/157/47 61/158/47 57/156/47
f 64/159/48 60/146/48 58/155/48 62/160/48
o Ground_Plane.001
v -7.038595 0.000000 7.038595
v 7.038595 0.000000 7.038595
v -7.038595 0.000000 -7.038595
v 7.038595 0.000000 -7.038595
vt 0.000075 0.000075
vt 0.999313 0.000075
vt 0.999313 0.999925
vt 0.000075 0.999925
vn 0.0000 1.0000 0.0000
usemtl Material.003
s off
f 65/161/49 66/162/49 68/163/49 67/164/49
o Plane.000_Plane.006
v -8.968532 0.007210 -0.988568
v -8.968532 0.007210 0.992261
v -5.853849 0.007210 -0.988568
v -5.853849 0.007210 0.992261
vt 0.054167 0.087407
vt 0.944167 0.087407
vt 0.944167 0.903704
vt 0.054167 0.903704
vn 0.0000 1.0000 0.0000
usemtl None
s off
f 69/165/50 70/166/50 72/167/50 71/168/50
o Plane.002_Plane.008
v -0.991988 0.007210 8.986873
v 0.988841 0.007210 8.986873
v -0.991988 0.007210 5.872190
v 0.988841 0.007210 5.872190
vt 0.054167 0.087407
vt 0.944167 0.087407
vt 0.944167 0.903704
vt 0.054167 0.903704
vn 0.0000 1.0000 0.0000
usemtl None_text-ground2.png.004
s off
f 73/169/51 74/170/51 76/171/51 75/172/51
