# Blender v2.79 (sub 0) OBJ File: 'sala_16.blend'
# www.blender.org
mtllib sala_16.mtl
o Wall.005_Cube.002
v 6.999999 0.000000 7.000000
v 7.499999 2.000000 7.500000
v -0.000001 0.000000 7.000000
v -0.000001 2.000000 7.500000
v 8.999999 0.000000 9.000000
v 8.499999 2.000000 8.500000
v -0.000001 0.000000 9.000000
v -0.000001 2.000000 8.500000
vt 0.084235 0.120808
vt 0.084235 0.879192
vt 0.915765 0.879192
vt 0.915765 0.120808
vt 0.084235 0.120808
vt 0.084235 0.879192
vt 0.915765 0.879192
vt 0.915765 0.120808
vt 0.084235 0.120808
vt 0.084235 0.879192
vt 0.915765 0.879192
vt 0.915765 0.120808
vt 0.084235 0.120808
vt 0.084235 0.879192
vt 0.915765 0.879192
vt 0.915765 0.120808
vt 0.915765 0.879192
vt 0.915765 0.120808
vt 0.084235 0.120808
vt 0.084235 0.879192
vn 0.0000 0.2425 -0.9701
vn -1.0000 0.0000 0.0000
vn 0.0000 0.2425 0.9701
vn 0.7071 -0.0000 -0.7071
vn 0.0000 -1.0000 0.0000
vn 0.0000 1.0000 0.0000
usemtl Material.004
s off
f 1/1/1 3/2/1 4/3/1 2/4/1
f 3/5/2 7/6/2 8/7/2 4/8/2
f 7/9/3 5/10/3 6/11/3 8/12/3
f 5/13/4 1/14/4 2/15/4 6/16/4
f 3/5/5 1/14/5 5/17/5 7/18/5
f 8/19/6 6/20/6 2/15/6 4/8/6
o Wall.003_Cube.010
v -9.000000 0.000000 8.999999
v -8.500000 2.000000 8.499999
v -9.000000 0.000000 -0.000001
v -8.500000 2.000000 -0.000001
v -7.000000 0.000000 6.999999
v -7.500000 2.000000 7.499999
v -7.000000 0.000000 -0.000001
v -7.500000 2.000000 -0.000001
vt 0.082139 0.117558
vt 0.917861 0.117558
vt 0.917861 0.882442
vt 0.082139 0.882442
vt 0.082139 0.117558
vt 0.917861 0.117558
vt 0.917861 0.882442
vt 0.082139 0.882442
vt 0.082139 0.117558
vt 0.917861 0.117558
vt 0.917861 0.882442
vt 0.082139 0.882442
vt 0.082139 0.117558
vt 0.917861 0.117558
vt 0.917861 0.882442
vt 0.082139 0.882442
vt 0.917861 0.117558
vt 0.917861 0.882442
vt 0.082139 0.117558
vt 0.082139 0.882442
vn -0.9701 0.2425 0.0000
vn 0.0000 0.0000 -1.0000
vn 0.9701 0.2425 0.0000
vn 0.7071 0.0000 0.7071
vn 0.0000 -1.0000 0.0000
vn 0.0000 1.0000 0.0000
usemtl Material.012
s off
f 9/21/7 10/22/7 12/23/7 11/24/7
f 11/25/8 12/26/8 16/27/8 15/28/8
f 15/29/9 16/30/9 14/31/9 13/32/9
f 13/33/10 14/34/10 10/35/10 9/36/10
f 11/25/11 15/37/11 13/38/11 9/36/11
f 16/39/12 12/26/12 10/35/12 14/40/12
o Wall.001_Cube.012
v -7.000000 0.000000 -7.000000
v -7.500000 2.000000 -7.500000
v -7.000000 0.000000 0.000000
v -7.500000 2.000000 0.000000
v -8.999999 0.000000 -9.000000
v -8.499999 2.000000 -8.500000
v -9.000001 0.000000 -0.000000
v -8.500001 2.000000 -0.002173
vt 0.081199 0.124960
vt 0.918801 0.124960
vt 0.918801 0.875040
vt 0.081199 0.875040
vt 0.081199 0.124960
vt 0.918801 0.124960
vt 0.918801 0.875040
vt 0.081199 0.875040
vt 0.081199 0.124960
vt 0.918801 0.124960
vt 0.918801 0.875040
vt 0.081199 0.875040
vt 0.081199 0.124960
vt 0.918801 0.124960
vt 0.918801 0.875040
vt 0.081199 0.875040
vt 0.918801 0.124960
vt 0.918801 0.875040
vt 0.081199 0.124960
vt 0.081199 0.875040
vn 0.9701 0.2425 0.0000
vn -0.0007 0.0005 1.0000
vn -0.9701 0.2425 -0.0000
vn 0.7071 0.0000 -0.7071
vn 0.0000 -1.0000 0.0000
vn 0.0000 1.0000 0.0000
usemtl Material.014
s off
f 17/41/13 18/42/13 20/43/13 19/44/13
f 19/45/14 20/46/14 24/47/14 23/48/14
f 23/49/15 24/50/15 22/51/15 21/52/15
f 21/53/16 22/54/16 18/55/16 17/56/16
f 19/45/17 23/57/17 21/58/17 17/56/17
f 24/59/18 20/46/18 18/55/18 22/60/18
o Wall.002_Cube.014
v -7.000000 0.000000 7.000000
v -7.500000 2.000000 7.500000
v 0.000000 0.000000 7.000000
v 0.000000 2.000000 7.500000
v -9.000000 0.000000 9.000000
v -8.500000 2.000000 8.500000
v 0.000000 0.000000 9.000000
v 0.000000 2.000000 8.500000
vt 0.081395 0.122307
vt 0.918605 0.122307
vt 0.918605 0.877693
vt 0.081395 0.877693
vt 0.081395 0.122307
vt 0.918605 0.122307
vt 0.918605 0.877693
vt 0.081395 0.877693
vt 0.081395 0.122307
vt 0.918605 0.122307
vt 0.918605 0.877693
vt 0.081395 0.877693
vt 0.081395 0.122307
vt 0.918605 0.122307
vt 0.918605 0.877693
vt 0.081395 0.877693
vt 0.918605 0.122307
vt 0.918605 0.877693
vt 0.081395 0.122307
vt 0.081395 0.877693
vn 0.0000 0.2425 -0.9701
vn 1.0000 0.0000 0.0000
vn 0.0000 0.2425 0.9701
vn -0.7071 0.0000 -0.7071
vn 0.0000 -1.0000 0.0000
vn 0.0000 1.0000 0.0000
usemtl Material.016
s off
f 25/61/19 26/62/19 28/63/19 27/64/19
f 27/65/20 28/66/20 32/67/20 31/68/20
f 31/69/21 32/70/21 30/71/21 29/72/21
f 29/73/22 30/74/22 26/75/22 25/76/22
f 27/65/23 31/77/23 29/78/23 25/76/23
f 32/79/24 28/66/24 26/75/24 30/80/24
o Wall.004_Cube.015
v 9.000000 0.000000 9.000000
v 8.500000 2.000000 8.500000
v 9.000000 0.000000 0.000000
v 8.500000 2.000000 0.000000
v 7.000000 0.000000 7.000000
v 7.500000 2.000000 7.500000
v 7.000000 0.000000 0.000000
v 7.500000 2.000000 0.000000
vt 0.085106 0.124444
vt 0.085106 0.873333
vt 0.917447 0.873333
vt 0.917447 0.124444
vt 0.085106 0.124444
vt 0.085106 0.873333
vt 0.917447 0.873333
vt 0.917447 0.124444
vt 0.085106 0.124444
vt 0.085106 0.873333
vt 0.917447 0.873333
vt 0.917447 0.124444
vt 0.085106 0.124444
vt 0.085106 0.873333
vt 0.917447 0.873333
vt 0.917447 0.124444
vt 0.917447 0.873333
vt 0.917447 0.124444
vt 0.085106 0.124444
vt 0.085106 0.873333
vn 0.9701 0.2425 0.0000
vn 0.0000 0.0000 -1.0000
vn -0.9701 0.2425 0.0000
vn -0.7071 0.0000 0.7071
vn 0.0000 -1.0000 0.0000
vn 0.0000 1.0000 0.0000
usemtl Material.017
s off
f 33/81/25 35/82/25 36/83/25 34/84/25
f 35/85/26 39/86/26 40/87/26 36/88/26
f 39/89/27 37/90/27 38/91/27 40/92/27
f 37/93/28 33/94/28 34/95/28 38/96/28
f 35/85/29 33/94/29 37/97/29 39/98/29
f 40/99/30 38/100/30 34/95/30 36/88/30
o Wall.006_Cube.016
v 9.000000 0.000000 -8.999999
v 8.500000 2.000000 -8.499999
v 9.000000 0.000000 0.000001
v 8.500000 2.000000 0.000001
v 7.000000 0.000000 -6.999999
v 7.500000 2.000000 -7.499999
v 7.000000 0.000000 0.000001
v 7.500000 2.000000 0.000001
vt 0.085106 0.124444
vt 0.917447 0.124444
vt 0.917447 0.873333
vt 0.085106 0.873333
vt 0.085106 0.124444
vt 0.917447 0.124444
vt 0.917447 0.873333
vt 0.085106 0.873333
vt 0.085106 0.124444
vt 0.917447 0.124444
vt 0.917447 0.873333
vt 0.085106 0.873333
vt 0.085106 0.124444
vt 0.917447 0.124444
vt 0.917447 0.873333
vt 0.085106 0.873333
vt 0.917447 0.124444
vt 0.917447 0.873333
vt 0.085106 0.124444
vt 0.085106 0.873333
vn 0.9701 0.2425 0.0000
vn 0.0000 0.0000 1.0000
vn -0.9701 0.2425 0.0000
vn -0.7071 0.0000 -0.7071
vn 0.0000 -1.0000 0.0000
vn 0.0000 1.0000 0.0000
usemtl Material.018
s off
f 41/101/31 42/102/31 44/103/31 43/104/31
f 43/105/32 44/106/32 48/107/32 47/108/32
f 47/109/33 48/110/33 46/111/33 45/112/33
f 45/113/34 46/114/34 42/115/34 41/116/34
f 43/105/35 47/117/35 45/118/35 41/116/35
f 48/119/36 44/106/36 42/115/36 46/120/36
o Ground_Plane.001
v -7.038595 0.000000 7.038595
v 7.038595 0.000000 7.038595
v -7.038595 0.000000 -7.038595
v 7.038595 0.000000 -7.038595
vt 0.088586 0.130446
vt 0.917611 0.130445
vt 0.917610 0.875480
vt 0.088586 0.875481
vn 0.0000 1.0000 0.0000
usemtl Material.003
s off
f 49/121/37 50/122/37 52/123/37 51/124/37
o Wall.000_Cube.000
v -7.000000 0.000000 -6.989780
v -7.500000 2.000000 -7.489780
v 0.000000 0.000000 -6.989780
v 0.000000 2.000000 -7.489780
v -9.000000 0.000000 -8.989780
v -8.500000 2.000000 -8.489780
v 0.000000 0.000000 -8.989780
v 0.000000 2.000000 -8.489780
vt 0.085106 0.124444
vt 0.085106 0.873333
vt 0.917447 0.873333
vt 0.917447 0.124444
vt 0.085106 0.124444
vt 0.085106 0.873333
vt 0.917447 0.873333
vt 0.917447 0.124444
vt 0.085106 0.124444
vt 0.085106 0.873333
vt 0.917447 0.873333
vt 0.917447 0.124444
vt 0.085106 0.124444
vt 0.085106 0.873333
vt 0.917447 0.873333
vt 0.917447 0.124444
vt 0.917447 0.873333
vt 0.917447 0.124444
vt 0.085106 0.124444
vt 0.085106 0.873333
vn 0.0000 0.2425 0.9701
vn 1.0000 0.0000 0.0000
vn 0.0000 0.2425 -0.9701
vn -0.7071 0.0000 0.7071
vn 0.0000 -1.0000 0.0000
vn 0.0000 1.0000 0.0000
usemtl Material.005
s off
f 53/125/38 55/126/38 56/127/38 54/128/38
f 55/129/39 59/130/39 60/131/39 56/132/39
f 59/133/40 57/134/40 58/135/40 60/136/40
f 57/137/41 53/138/41 54/139/41 58/140/41
f 55/129/42 53/138/42 57/141/42 59/142/42
f 60/143/43 58/144/43 54/139/43 56/132/43
o Wall.007_Cube.001
v 6.999999 0.000000 -7.004943
v 7.499999 2.000000 -7.504943
v -0.000001 0.000000 -7.004943
v -0.000001 2.000000 -7.504943
v 8.999999 0.000000 -9.004943
v 8.499999 2.000000 -8.504943
v -0.000001 0.000000 -9.004943
v -0.000001 2.000000 -8.504943
vt 0.085106 0.124444
vt 0.917447 0.124444
vt 0.917447 0.873333
vt 0.085106 0.873333
vt 0.085106 0.124444
vt 0.917447 0.124444
vt 0.917447 0.873333
vt 0.085106 0.873333
vt 0.085106 0.124444
vt 0.917447 0.124444
vt 0.917447 0.873333
vt 0.085106 0.873333
vt 0.085106 0.124444
vt 0.917447 0.124444
vt 0.917447 0.873333
vt 0.085106 0.873333
vt 0.917447 0.124444
vt 0.917447 0.873333
vt 0.085106 0.124444
vt 0.085106 0.873333
vn 0.0000 0.2425 0.9701
vn -1.0000 0.0000 0.0000
vn 0.0000 0.2425 -0.9701
vn 0.7071 -0.0000 0.7071
vn 0.0000 -1.0000 0.0000
vn 0.0000 1.0000 0.0000
usemtl Material.006
s off
f 61/145/44 62/146/44 64/147/44 63/148/44
f 63/149/45 64/150/45 68/151/45 67/152/45
f 67/153/46 68/154/46 66/155/46 65/156/46
f 65/157/47 66/158/47 62/159/47 61/160/47
f 63/149/48 67/161/48 65/162/48 61/160/48
f 68/163/49 64/150/49 62/159/49 66/164/49
