# Blender v2.79 (sub 0) OBJ File: 'sala_001.blend'
# www.blender.org
mtllib sala.mtl
o Wall.004_Cube.015
v -9.000000 0.673254 -9.000000
v -8.500000 2.673254 -8.500000
v -9.000000 0.673254 -1.000000
v -8.500000 2.673254 -1.000000
v -7.000000 0.673254 -7.000000
v -7.500000 2.673254 -7.500000
v -7.000000 0.673254 -1.000000
v -7.500000 2.673254 -1.000000
v -7.000227 0.673254 7.000230
v 7.000228 0.673254 7.000229
v -7.000228 0.673254 -7.000228
v 7.000229 0.673254 -7.000229
v -8.999999 0.673254 9.000000
v -8.499999 2.673254 8.500001
v -9.000000 0.673254 1.000000
v -8.500000 2.673254 1.000000
v -6.999999 0.673254 7.000001
v -7.499999 2.673254 7.500000
v -7.000000 0.673254 1.000000
v -7.500000 2.673254 1.000000
v -6.999999 0.673254 -7.000000
v -7.500000 2.673254 -7.500000
v -1.000000 0.673254 -7.000001
v -1.000000 2.673254 -7.500001
v -8.999999 0.673254 -9.000000
v -8.499999 2.673254 -8.500000
v -1.000000 0.673254 -9.000000
v -1.000000 2.673254 -8.500000
v 9.000000 0.673254 -9.000002
v 8.500000 2.673254 -8.500002
v 9.000000 0.673254 -1.000000
v 8.500000 2.673254 -1.000000
v 7.000000 0.673254 -7.000001
v 7.500000 2.673254 -7.500001
v 7.000000 0.673254 -1.000000
v 7.500000 2.673254 -1.000000
v 9.000002 0.673254 9.000000
v 8.500002 2.673254 8.499999
v 1.000000 0.673254 9.000001
v 1.000000 2.673254 8.500000
v 7.000000 0.673254 7.000000
v 7.500000 2.673254 7.500000
v 1.000000 0.673254 7.000000
v 1.000000 2.673254 7.500000
v 7.000001 0.673254 7.000001
v 7.500001 2.673254 7.500001
v 7.000000 0.673254 1.000000
v 7.500000 2.673254 1.000000
v 9.000002 0.673254 9.000000
v 8.500002 2.673254 8.500000
v 9.000000 0.673254 1.000000
v 8.500000 2.673254 1.000000
v 7.000000 0.673254 -7.000001
v 7.500000 2.673254 -7.500002
v 1.000000 0.673254 -7.000001
v 1.000000 2.673254 -7.500001
v 9.000000 0.673254 -9.000002
v 8.500000 2.673254 -8.500002
v 1.000000 0.673254 -9.000001
v 1.000000 2.673254 -8.500001
v -7.000000 0.673254 7.000001
v -7.500000 2.673254 7.500001
v -1.000000 0.673254 7.000000
v -1.000000 2.673254 7.500000
v -8.999999 0.673254 9.000002
v -8.499999 2.673254 8.500001
v -1.000000 0.673254 9.000001
v -1.000000 2.673254 8.500000
vt 0.000000 0.000000
vt 0.000000 1.000000
vt 1.000000 1.000000
vt 1.000000 0.000000
vt 0.000000 0.000000
vt 0.000000 1.000000
vt 1.000000 1.000000
vt 1.000000 0.000000
vt 0.000000 0.000000
vt 0.000000 1.000000
vt 1.000000 1.000000
vt 1.000000 0.000000
vt 0.000000 0.000000
vt 0.000000 1.000000
vt 1.000000 1.000000
vt 1.000000 0.000000
vt 1.000000 1.000000
vt 1.000000 0.000000
vt 0.000000 0.000000
vt 0.000000 1.000000
vt 0.000075 0.000075
vt 0.000075 0.999925
vt 0.999313 0.999925
vt 0.999313 0.000075
vt 0.000000 0.000000
vt 0.000000 1.000000
vt 1.000000 1.000000
vt 1.000000 0.000000
vt 0.000000 0.000000
vt 0.000000 1.000000
vt 1.000000 1.000000
vt 1.000000 0.000000
vt 0.000000 0.000000
vt 0.000000 1.000000
vt 1.000000 1.000000
vt 1.000000 0.000000
vt 0.000000 0.000000
vt 0.000000 1.000000
vt 1.000000 1.000000
vt 1.000000 0.000000
vt 1.000000 1.000000
vt 1.000000 0.000000
vt 0.000000 0.000000
vt 0.000000 1.000000
vt 0.000000 0.000000
vt 0.000000 1.000000
vt 1.000000 1.000000
vt 1.000000 0.000000
vt 0.000000 0.000000
vt 0.000000 1.000000
vt 1.000000 1.000000
vt 1.000000 0.000000
vt 0.000000 0.000000
vt 0.000000 1.000000
vt 1.000000 1.000000
vt 1.000000 0.000000
vt 0.000000 0.000000
vt 0.000000 1.000000
vt 1.000000 1.000000
vt 1.000000 0.000000
vt 1.000000 1.000000
vt 1.000000 0.000000
vt 0.000000 0.000000
vt 0.000000 1.000000
vt 0.000000 0.000000
vt 0.000000 1.000000
vt 1.000000 1.000000
vt 1.000000 0.000000
vt 0.000000 0.000000
vt 0.000000 1.000000
vt 1.000000 1.000000
vt 1.000000 0.000000
vt 0.000000 0.000000
vt 0.000000 1.000000
vt 1.000000 1.000000
vt 1.000000 0.000000
vt 0.000000 0.000000
vt 0.000000 1.000000
vt 1.000000 1.000000
vt 1.000000 0.000000
vt 1.000000 1.000000
vt 1.000000 0.000000
vt 0.000000 0.000000
vt 0.000000 1.000000
vt 0.000000 0.000000
vt 0.000000 1.000000
vt 1.000000 1.000000
vt 1.000000 0.000000
vt 0.000000 0.000000
vt 0.000000 1.000000
vt 1.000000 1.000000
vt 1.000000 0.000000
vt 0.000000 0.000000
vt 0.000000 1.000000
vt 1.000000 1.000000
vt 1.000000 0.000000
vt 0.000000 0.000000
vt 0.000000 1.000000
vt 1.000000 1.000000
vt 1.000000 0.000000
vt 1.000000 1.000000
vt 1.000000 0.000000
vt 0.000000 0.000000
vt 0.000000 1.000000
vt 0.000000 0.000000
vt 0.000000 1.000000
vt 1.000000 1.000000
vt 1.000000 0.000000
vt 0.000000 0.000000
vt 0.000000 1.000000
vt 1.000000 1.000000
vt 1.000000 0.000000
vt 0.000000 0.000000
vt 0.000000 1.000000
vt 1.000000 1.000000
vt 1.000000 0.000000
vt 0.000000 0.000000
vt 0.000000 1.000000
vt 1.000000 1.000000
vt 1.000000 0.000000
vt 1.000000 1.000000
vt 1.000000 0.000000
vt 0.000000 0.000000
vt 0.000000 1.000000
vt 0.000000 0.000000
vt 0.000000 1.000000
vt 1.000000 1.000000
vt 1.000000 0.000000
vt 0.000000 0.000000
vt 0.000000 1.000000
vt 1.000000 1.000000
vt 1.000000 0.000000
vt 0.000000 0.000000
vt 0.000000 1.000000
vt 1.000000 1.000000
vt 1.000000 0.000000
vt 0.000000 0.000000
vt 0.000000 1.000000
vt 1.000000 1.000000
vt 1.000000 0.000000
vt 1.000000 1.000000
vt 1.000000 0.000000
vt 0.000000 0.000000
vt 0.000000 1.000000
vt 0.000000 0.000000
vt 0.000000 1.000000
vt 1.000000 1.000000
vt 1.000000 0.000000
vt 0.000000 0.000000
vt 0.000000 1.000000
vt 1.000000 1.000000
vt 1.000000 0.000000
vt 0.000000 0.000000
vt 0.000000 1.000000
vt 1.000000 1.000000
vt 1.000000 0.000000
vt 0.000000 0.000000
vt 0.000000 1.000000
vt 1.000000 1.000000
vt 1.000000 0.000000
vt 1.000000 1.000000
vt 1.000000 0.000000
vt 0.000000 0.000000
vt 0.000000 1.000000
vn -0.9701 0.2425 0.0000
vn 0.0000 0.0000 1.0000
vn 0.9701 0.2425 -0.0000
vn 0.7071 0.0000 -0.7071
vn 0.0000 -1.0000 0.0000
vn 0.0000 1.0000 0.0000
vn 0.9701 -0.2425 -0.0000
vn -0.9701 -0.2425 0.0000
vn -0.7071 0.0000 -0.7071
vn 0.0000 0.2425 0.9701
vn 1.0000 0.0000 0.0000
vn 0.0000 0.2425 -0.9701
vn -0.7071 -0.0000 0.7071
vn 0.0000 0.0000 -1.0000
vn 0.7071 0.0000 0.7071
vn 0.0000 -0.2425 -0.9701
vn 0.0000 -0.2425 0.9701
vn -1.0000 0.0000 0.0000
usemtl Material.017
s off
f 1/1/1 3/2/1 4/3/1 2/4/1
f 3/5/2 7/6/2 8/7/2 4/8/2
f 7/9/3 5/10/3 6/11/3 8/12/3
f 5/13/4 1/14/4 2/15/4 6/16/4
f 3/5/5 1/14/5 5/17/5 7/18/5
f 8/19/6 6/20/6 2/15/6 4/8/6
usemtl Material.001
f 9/21/5 11/22/5 12/23/5 10/24/5
usemtl Material.018
f 13/25/7 15/26/7 16/27/7 14/28/7
f 15/29/2 19/30/2 20/31/2 16/32/2
f 19/33/8 17/34/8 18/35/8 20/36/8
f 17/37/9 13/38/9 14/39/9 18/40/9
f 15/29/6 13/38/6 17/41/6 19/42/6
f 20/43/5 18/44/5 14/39/5 16/32/5
usemtl Material.004
f 21/45/10 23/46/10 24/47/10 22/48/10
f 23/49/11 27/50/11 28/51/11 24/52/11
f 27/53/12 25/54/12 26/55/12 28/56/12
f 25/57/13 21/58/13 22/59/13 26/60/13
f 23/49/5 21/58/5 25/61/5 27/62/5
f 28/63/6 26/64/6 22/59/6 24/52/6
usemtl Material.012
f 29/65/8 31/66/8 32/67/8 30/68/8
f 31/69/14 35/70/14 36/71/14 32/72/14
f 35/73/7 33/74/7 34/75/7 36/76/7
f 33/77/15 29/78/15 30/79/15 34/80/15
f 31/69/6 29/78/6 33/81/6 35/82/6
f 36/83/5 34/84/5 30/79/5 32/72/5
usemtl Material.013
f 37/85/16 39/86/16 40/87/16 38/88/16
f 39/89/11 43/90/11 44/91/11 40/92/11
f 43/93/17 41/94/17 42/95/17 44/96/17
f 41/97/13 37/98/13 38/99/13 42/100/13
f 39/89/6 37/98/6 41/101/6 43/102/6
f 44/103/5 42/104/5 38/99/5 40/92/5
usemtl Material.014
f 45/105/7 47/106/7 48/107/7 46/108/7
f 47/109/2 51/110/2 52/111/2 48/112/2
f 51/113/8 49/114/8 50/115/8 52/116/8
f 49/117/4 45/118/4 46/119/4 50/120/4
f 47/109/6 45/118/6 49/121/6 51/122/6
f 52/123/5 50/124/5 46/119/5 48/112/5
usemtl Material.016
f 53/125/16 55/126/16 56/127/16 54/128/16
f 55/129/11 59/130/11 60/131/11 56/132/11
f 59/133/17 57/134/17 58/135/17 60/136/17
f 57/137/9 53/138/9 54/139/9 58/140/9
f 55/129/6 53/138/6 57/141/6 59/142/6
f 60/143/5 58/144/5 54/139/5 56/132/5
usemtl Material.019
f 61/145/17 63/146/17 64/147/17 62/148/17
f 63/149/18 67/150/18 68/151/18 64/152/18
f 67/153/16 65/154/16 66/155/16 68/156/16
f 65/157/15 61/158/15 62/159/15 66/160/15
f 63/149/6 61/158/6 65/161/6 67/162/6
f 68/163/5 66/164/5 62/159/5 64/152/5
