# Blender v2.79 (sub 0) OBJ File: 'heart.blend'
# www.blender.org
mtllib heart.mtl
o Love
v -0.321940 0.351742 0.632783
v 0.008412 0.361277 0.427038
v 0.006485 0.476538 0.171708
v -0.553814 -0.235308 -0.188100
v -0.335379 -0.173166 -0.478310
v -0.265430 -0.310277 -0.334979
v 0.341410 0.377539 -0.309578
v 0.062082 0.299982 -0.543326
v 0.005096 0.433227 -0.309058
v -0.575366 0.161788 -0.327742
v -0.346149 -0.028765 -0.552097
v -0.685563 0.001315 -0.217425
v 0.060944 -0.092955 -0.708872
v 0.393465 -0.222992 -0.385963
v 0.046975 -0.179140 -0.656210
v -0.426257 -0.333944 0.337249
v 0.008183 -0.338930 0.249888
v -0.348513 -0.248861 0.572587
v -0.557632 -0.282208 0.441455
v -0.547450 -0.325900 0.194232
v -0.738982 0.353017 0.370149
v -0.760851 0.309572 0.071940
v -0.867360 0.202545 0.302184
v 0.604622 0.140738 0.704593
v 0.805540 0.196823 0.502060
v 0.532977 0.333680 0.639834
v 0.557363 0.440056 0.095472
v 0.214055 0.475718 -0.096458
v 0.465951 0.469710 0.374034
v 0.152014 -0.318354 -0.381065
v 0.357834 -0.345314 -0.121385
v 0.124989 -0.379442 0.093194
v 0.459892 -0.322622 0.401957
v -0.326991 -0.370194 -0.031140
v 0.003772 -0.385618 -0.192483
v 0.279495 -0.374329 -0.010177
v 0.729042 0.009970 0.616883
v 0.873828 0.002114 0.390441
v -0.716903 -0.247103 0.235811
v -0.830242 -0.137829 0.380246
v -0.288940 0.249224 0.702962
v -0.315983 0.068036 0.747960
v -0.005728 0.226784 0.548844
v -0.181487 -0.379156 0.080068
v -0.135215 -0.078760 -0.675065
v -0.077985 0.164678 -0.689550
v -0.330390 0.184149 -0.524703
v -0.594540 -0.109388 -0.277687
v -0.803166 -0.134964 0.078849
v -0.883548 0.056650 0.168500
v 0.412581 0.233693 -0.423166
v 0.385541 0.018272 -0.528370
v 0.099226 0.153220 -0.684947
v -0.114424 -0.192445 -0.607320
v -0.082934 -0.293944 -0.458994
v -0.418070 -0.327282 -0.123018
v -0.622853 -0.286405 0.045131
v 0.614616 -0.306653 0.093298
v -0.005155 -0.051749 0.571128
v 0.259229 0.028874 0.734444
v 0.623779 0.116289 -0.277655
v 0.614183 -0.065947 -0.274476
v 0.861536 -0.026848 0.141023
v 0.804862 0.137170 -0.001917
v -0.611490 0.050484 0.720236
v -0.760110 0.240648 0.542432
v -0.846061 -0.006776 0.481470
v -0.180293 0.334071 -0.464516
v -0.376462 0.414510 -0.202214
v -0.245574 0.479844 -0.043330
v -0.609379 0.425075 0.095008
v -0.515152 0.461349 0.335816
v 0.294316 0.408838 0.532696
v 0.266384 0.294460 0.674388
v 0.848304 0.230447 0.231650
v 0.726618 0.364203 0.356055
v 0.311780 -0.196714 0.653807
v 0.708050 -0.195644 0.473916
v -0.525265 0.233858 0.705178
v -0.309084 -0.102433 0.711609
v -0.013104 -0.213276 0.456132
v -0.565346 -0.144745 0.654912
v 0.702956 0.326452 0.002762
v 0.492066 -0.036804 0.737971
v 0.594750 -0.155737 0.622452
v 0.404898 0.169252 0.748280
v -0.537090 0.319632 -0.217309
v -0.826410 0.164338 0.044226
v 0.716520 -0.153860 -0.043153
v 0.784033 -0.194976 0.231530
v -0.533334 0.369220 0.569375
v -0.369187 0.451327 0.449311
vn 0.2232 0.8891 0.3997
vn -0.4461 -0.7454 -0.4954
vn 0.1441 0.8748 -0.4625
vn -0.7024 -0.0069 -0.7117
vn 0.4873 -0.5115 -0.7078
vn 0.0542 -0.9446 0.3236
vn -0.2504 -0.9551 0.1585
vn -0.7509 0.6591 -0.0410
vn 0.5717 0.4439 0.6900
vn 0.1365 0.9888 -0.0605
vn 0.3368 -0.8711 -0.3574
vn -0.0397 -0.9742 0.2223
vn -0.1369 -0.9887 0.0604
vn 0.0370 -0.9993 0.0059
vn 0.0898 -0.9923 0.0852
vn 0.8422 -0.0136 0.5390
vn -0.4960 -0.8340 0.2418
vn 0.4818 0.1428 0.8646
vn -0.0080 -0.9861 0.1657
vn 0.0457 -0.9584 0.2818
vn -0.1823 -0.4910 -0.8519
vn -0.5329 0.1467 -0.8333
vn -0.6971 -0.1980 -0.6891
vn -0.9325 -0.3504 -0.0871
vn 0.5635 0.3044 -0.7680
vn -0.1711 -0.0184 -0.9851
vn -0.0975 -0.8309 -0.5479
vn 0.1542 -0.9627 -0.2222
vn -0.7858 -0.3809 -0.4872
vn -0.4258 -0.8493 -0.3121
vn 0.0644 -0.8803 -0.4700
vn 0.3046 -0.7980 -0.5200
vn -0.3030 -0.9427 -0.1399
vn 0.0108 -0.9445 -0.3284
vn -0.6214 -0.3928 -0.6779
vn -0.4913 0.0638 -0.8687
vn -0.6412 -0.6877 -0.3405
vn -0.7387 -0.6701 -0.0727
vn -0.1527 -0.9633 -0.2209
vn -0.0019 -0.9997 0.0224
vn -0.6522 -0.7389 -0.1694
vn -0.3877 -0.9103 0.1449
vn -0.5806 -0.5883 -0.5629
vn -0.7038 -0.5487 -0.4512
vn -0.1123 -0.9503 -0.2904
vn -0.2693 -0.8205 -0.5043
vn -0.5295 -0.4170 -0.7387
vn -0.2059 -0.5285 -0.8236
vn -0.4263 -0.9042 -0.0239
vn -0.2954 -0.9499 -0.1022
vn 0.1853 -0.9818 0.0421
vn 0.4093 -0.8479 -0.3369
vn 0.1424 -0.9776 -0.1548
vn 0.2250 -0.9698 -0.0945
vn -0.3790 -0.7541 -0.5364
vn -0.4654 -0.5143 -0.7203
vn -0.1125 -0.9914 0.0672
vn -0.0524 -0.9986 -0.0119
vn -0.4009 -0.8439 -0.3564
vn -0.2145 -0.9491 -0.2306
vn 0.5134 0.0695 0.8553
vn -0.5389 0.0661 0.8398
vn 0.7338 -0.0505 -0.6775
vn 0.8568 -0.1372 -0.4971
vn -0.7206 0.0807 0.6886
vn -0.9028 0.2230 0.3677
vn -0.1547 0.9062 -0.3936
vn -0.1775 0.9810 -0.0783
vn -0.2911 0.8712 0.3955
vn -0.4520 0.2083 0.8674
vn 0.9639 0.1312 -0.2317
vn 0.3766 0.9261 0.0250
vn -0.1007 -0.9123 0.3969
vn 0.7564 -0.4237 0.4983
vn -0.4313 0.9016 0.0330
vn -0.5343 0.3156 0.7842
vn 0.2998 -0.6981 0.6502
vn -0.6139 -0.3771 0.6935
vn 0.6434 0.2692 -0.7166
vn 0.8263 0.4531 -0.3346
vn 0.1737 -0.6049 0.7772
vn -0.0331 -0.0639 0.9974
vn -0.4379 0.6762 -0.5925
vn -0.7457 0.4332 -0.5062
vn 0.3724 0.8609 0.3467
vn -0.3313 0.7650 0.5522
vn 0.8075 -0.5211 -0.2765
vn 0.7914 -0.5594 0.2465
vn -0.3739 0.8723 0.3150
vn 0.2461 0.8770 0.4127
vn 0.0096 0.9999 0.0046
vn 0.0117 0.9999 0.0065
vn 0.0121 0.9999 0.0063
vn -0.0177 0.9992 0.0361
vn -0.1002 0.1281 0.9867
vn -0.1481 -0.3451 0.9268
vn 0.4259 -0.5386 0.7270
vn -0.4280 -0.5101 0.7461
vn 0.2513 0.9274 -0.2771
vn 0.6624 0.4976 -0.5600
vn -0.8147 0.1806 -0.5511
vn -0.8864 -0.1705 -0.4303
vn -0.3952 -0.3894 0.8320
vn -0.1150 -0.3580 0.9266
vn 0.5466 -0.4123 -0.7289
vn 0.4834 0.0099 -0.8754
vn 0.4124 -0.8968 0.1603
vn 0.1786 -0.8340 0.5220
vn 0.5735 0.6751 0.4640
vn 0.9559 0.2320 0.1800
vn 0.9958 0.0714 -0.0574
vn 0.9089 -0.4170 0.0036
vn 0.2496 0.3901 0.8863
vn -0.0340 0.7809 0.6237
vn 0.3368 0.6966 -0.6335
vn -0.3814 0.6469 -0.6603
vn 0.6192 -0.3840 -0.6850
vn 0.5677 -0.7257 -0.3886
vn 0.6745 0.7280 -0.1230
vn 0.8094 0.5533 0.1968
vn -0.1002 0.9604 0.2600
vn 0.0860 0.8955 0.4366
vn 0.3583 0.6813 -0.6383
vn 0.5372 0.6702 -0.5122
vn -0.0754 0.8681 0.4906
vn -0.0066 0.2420 0.9703
vn -0.7894 0.5540 0.2645
vn -0.4825 0.7596 0.4362
vn 0.4798 -0.3620 0.7992
vn 0.2195 0.0441 0.9746
vn -0.2226 0.9524 -0.2083
vn -0.6830 0.5226 -0.5102
vn 0.4242 0.8332 -0.3548
vn 0.5596 0.8193 -0.1250
vn 0.6733 -0.6889 -0.2686
vn 0.4613 -0.8758 0.1422
vn -0.0788 -0.9289 0.3619
vn -0.0493 -0.6807 0.7309
vn -0.1977 -0.8274 0.5257
vn -0.4942 -0.7389 0.4580
vn 0.0638 0.7013 -0.7100
vn 0.0318 0.0918 -0.9953
vn 0.4234 0.5833 0.6932
vn -0.4498 0.6251 0.6380
vn -0.5978 0.7984 -0.0725
vn -0.5240 0.7628 -0.3788
vn -0.2520 -0.8378 0.4844
vn 0.2670 -0.8105 0.5214
vn -0.1267 0.9498 -0.2862
vn 0.0095 0.9999 0.0043
vn -0.8772 0.4348 -0.2037
vn -0.9929 0.0010 0.1191
vn -0.9802 -0.1807 0.0808
vn -0.6189 -0.5256 0.5837
vn -0.0946 0.7742 -0.6258
vn -0.0416 0.8641 -0.5016
vn -0.2985 0.2181 0.9292
vn 0.0311 0.5333 0.8454
vn 0.7460 0.4145 -0.5213
vn 0.8365 -0.0536 -0.5453
vn 0.4367 -0.1707 0.8833
vn -0.0789 -0.2110 0.9743
vn -0.0125 0.9828 -0.1842
vn 0.1533 0.9291 -0.3364
vn -0.4320 0.6258 0.6494
vn -0.1531 0.6953 0.7022
vn 0.4719 -0.1354 0.8712
vn 0.6774 0.1634 0.7172
vn 0.6551 -0.5631 -0.5038
vn 0.8382 -0.2703 -0.4736
vn -0.0009 0.9960 0.0892
vn -0.2055 0.9157 0.3452
vn -0.9411 0.2792 -0.1907
vn -0.8915 -0.0470 -0.4506
vn 0.2984 -0.8400 0.4533
vn 0.6263 -0.4871 0.6086
vn -0.3952 0.7528 -0.5264
vn -0.4445 0.8125 -0.3772
vn -0.5478 0.5647 -0.6173
vn -0.6280 0.1449 -0.7646
vn 0.4098 0.6014 0.6858
vn -0.0285 0.5584 0.8291
usemtl wire_143224087
s 1
f 1//1 2//1 3//1
f 4//2 5//2 6//2
f 7//3 8//3 9//3
f 10//4 11//4 12//4
f 13//5 14//5 15//5
f 16//6 17//6 18//6
f 19//7 20//7 16//7
f 21//8 22//8 23//8
f 24//9 25//9 26//9
f 27//10 28//10 29//10
f 30//11 14//11 31//11
f 32//12 33//12 17//12
f 20//13 34//13 16//13
f 35//14 36//14 32//14
f 32//15 36//15 33//15
f 37//16 38//16 25//16
f 39//17 19//17 40//17
f 41//18 42//18 43//18
f 16//19 44//19 32//19
f 16//20 32//20 17//20
f 15//21 45//21 13//21
f 46//22 11//22 47//22
f 11//23 48//23 12//23
f 49//24 40//24 50//24
f 51//25 52//25 53//25
f 13//26 45//26 46//26
f 54//27 15//27 55//27
f 30//28 31//28 35//28
f 48//29 49//29 12//29
f 4//30 56//30 57//30
f 55//31 15//31 30//31
f 15//32 14//32 30//32
f 57//33 56//33 34//33
f 55//34 30//34 35//34
f 11//35 5//35 48//35
f 46//36 45//36 11//36
f 49//37 4//37 57//37
f 40//38 49//38 39//38
f 6//39 35//39 34//39
f 35//40 32//40 44//40
f 39//41 49//41 57//41
f 39//42 20//42 19//42
f 48//43 5//43 4//43
f 48//44 4//44 49//44
f 35//45 6//45 55//45
f 6//46 54//46 55//46
f 11//47 45//47 5//47
f 45//48 15//48 54//48
f 39//49 57//49 20//49
f 20//50 57//50 34//50
f 36//51 58//51 33//51
f 31//52 14//52 58//52
f 35//53 31//53 36//53
f 31//54 58//54 36//54
f 5//55 54//55 6//55
f 54//56 5//56 45//56
f 34//57 44//57 16//57
f 34//58 35//58 44//58
f 4//59 6//59 56//59
f 6//60 34//60 56//60
f 42//61 59//61 43//61
f 60//62 43//62 59//62
f 61//63 62//63 52//63
f 63//64 62//64 64//64
f 65//65 66//65 67//65
f 67//66 66//66 23//66
f 68//67 69//67 9//67
f 70//68 71//68 72//68
f 2//69 73//69 3//69
f 43//70 60//70 74//70
f 63//71 64//71 75//71
f 76//72 27//72 29//72
f 17//73 33//73 77//73
f 37//74 78//74 38//74
f 72//75 71//75 21//75
f 79//76 66//76 65//76
f 80//77 18//77 81//77
f 82//78 65//78 67//78
f 52//79 51//79 61//79
f 64//80 83//80 75//80
f 84//81 77//81 85//81
f 60//82 84//82 86//82
f 68//83 47//83 87//83
f 22//84 10//84 88//84
f 29//85 26//85 76//85
f 2//86 74//86 73//86
f 89//87 63//87 90//87
f 38//88 78//88 90//88
f 21//89 91//89 72//89
f 1//90 3//90 92//90
f 28//91 3//92 29//93
f 3//94 70//94 72//94
f 42//95 79//95 65//95
f 65//96 82//96 80//96
f 81//97 59//97 80//97
f 77//98 59//98 81//98
f 7//99 28//99 27//99
f 61//100 51//100 83//100
f 12//101 88//101 10//101
f 12//102 49//102 50//102
f 59//103 77//103 60//103
f 77//104 84//104 60//104
f 52//105 14//105 13//105
f 52//106 13//106 53//106
f 33//107 58//107 78//107
f 33//108 85//108 77//108
f 76//109 26//109 25//109
f 38//110 75//110 25//110
f 63//111 75//111 38//111
f 38//112 90//112 63//112
f 86//113 24//113 26//113
f 74//114 26//114 73//114
f 53//115 8//115 7//115
f 46//116 47//116 68//116
f 52//117 62//117 14//117
f 58//118 14//118 89//118
f 76//119 75//119 83//119
f 25//120 75//120 76//120
f 29//121 3//121 73//121
f 73//122 26//122 29//122
f 53//123 7//123 51//123
f 83//124 51//124 7//124
f 92//125 91//125 1//125
f 42//126 41//126 79//126
f 66//127 21//127 23//127
f 66//128 91//128 21//128
f 37//129 84//129 85//129
f 84//130 24//130 86//130
f 69//131 71//131 70//131
f 87//132 10//132 22//132
f 83//133 7//133 27//133
f 76//134 83//134 27//134
f 58//135 89//135 90//135
f 58//136 90//136 78//136
f 18//137 19//137 16//137
f 18//138 80//138 82//138
f 19//139 18//139 82//139
f 82//140 40//140 19//140
f 53//141 46//141 8//141
f 53//142 13//142 46//142
f 43//143 2//143 41//143
f 43//144 74//144 2//144
f 71//145 22//145 21//145
f 87//146 22//146 71//146
f 17//147 77//147 81//147
f 17//148 81//148 18//148
f 9//149 69//149 70//149
f 28//91 70//150 3//92
f 88//151 23//151 22//151
f 50//152 67//152 23//152
f 40//153 67//153 50//153
f 82//154 67//154 40//154
f 46//155 68//155 8//155
f 9//156 8//156 68//156
f 74//157 60//157 86//157
f 86//158 26//158 74//158
f 64//159 61//159 83//159
f 62//160 61//160 64//160
f 42//161 80//161 59//161
f 65//162 80//162 42//162
f 9//163 70//163 28//163
f 7//164 9//164 28//164
f 91//165 66//165 79//165
f 79//166 1//166 91//166
f 24//167 84//167 37//167
f 24//168 37//168 25//168
f 89//169 14//169 62//169
f 89//170 62//170 63//170
f 72//171 92//171 3//171
f 72//172 91//172 92//172
f 88//173 50//173 23//173
f 12//174 50//174 88//174
f 33//175 78//175 85//175
f 37//176 85//176 78//176
f 68//177 87//177 69//177
f 69//178 87//178 71//178
f 47//179 10//179 87//179
f 47//180 11//180 10//180
f 41//181 2//181 1//181
f 79//182 41//182 1//182
