# Blender v2.79 (sub 0) OBJ File: 'Cadencia.blend'
# www.blender.org
mtllib Cadencia.mtl
o Cube_Cube.001
v 0.958011 1.145354 0.718123
v 0.959086 1.297214 0.718764
v 0.272588 1.145354 -0.354121
v 0.272588 1.297123 -0.354121
v 1.344832 1.145354 0.718123
v 1.345474 1.297214 0.718764
v 0.640392 1.145354 -0.354121
v 0.640392 1.297123 -0.354121
vn -0.8424 0.0018 0.5388
vn 0.0000 0.0000 -1.0000
vn 0.8357 -0.0006 -0.5491
vn 0.0000 -0.0042 1.0000
vn 0.0000 -1.0000 0.0000
vn 0.0000 1.0000 -0.0001
usemtl Material.001
s off
f 1//1 2//1 4//1 3//1
f 3//2 4//2 8//2 7//2
f 7//3 8//3 6//3 5//3
f 5//4 6//4 2//4 1//4
f 3//5 7//5 5//5 1//5
f 8//6 4//6 2//6 6//6
o Cube.001_Cube.002
v 0.510189 1.145354 0.718123
v 0.511264 1.297214 0.718764
v -0.175234 1.145354 -0.354121
v -0.175234 1.297123 -0.354121
v 0.897009 1.145354 0.718123
v 0.897651 1.297214 0.718764
v 0.192569 1.145354 -0.354121
v 0.192569 1.297123 -0.354121
vn -0.8424 0.0018 0.5388
vn 0.0000 0.0000 -1.0000
vn 0.8357 -0.0006 -0.5491
vn 0.0000 -0.0042 1.0000
vn 0.0000 -1.0000 -0.0000
vn 0.0000 1.0000 -0.0001
usemtl Material.001
s off
f 9//7 10//7 12//7 11//7
f 11//8 12//8 16//8 15//8
f 15//9 16//9 14//9 13//9
f 13//10 14//10 10//10 9//10
f 11//11 15//11 13//11 9//11
f 16//12 12//12 10//12 14//12
o Cube.003_Cube.004
v -0.194252 1.145354 -0.354121
v -0.193176 1.297214 -0.354763
v -0.879675 1.145354 0.718123
v -0.879675 1.297123 0.718123
v 0.192569 1.145354 -0.354121
v 0.193211 1.297214 -0.354763
v -0.511871 1.145354 0.718123
v -0.511871 1.297123 0.718123
vn -0.8424 0.0018 -0.5388
vn 0.0000 0.0000 1.0000
vn 0.8357 -0.0006 0.5491
vn 0.0000 -0.0042 -1.0000
vn 0.0000 -1.0000 0.0000
vn 0.0000 1.0000 0.0001
usemtl Material.001
s off
f 17//13 19//13 20//13 18//13
f 19//14 23//14 24//14 20//14
f 23//15 21//15 22//15 24//15
f 21//16 17//16 18//16 22//16
f 19//17 17//17 21//17 23//17
f 24//18 22//18 18//18 20//18
o Cube.002_Cube.003
v -0.642074 1.145354 -0.354121
v -0.640999 1.297214 -0.354763
v -1.327497 1.145354 0.718123
v -1.327497 1.297123 0.718123
v -0.255253 1.145354 -0.354121
v -0.254612 1.297214 -0.354763
v -0.959693 1.145354 0.718123
v -0.959693 1.297123 0.718123
vn -0.8424 0.0018 -0.5388
vn 0.0000 0.0000 1.0000
vn 0.8357 -0.0006 0.5491
vn 0.0000 -0.0042 -1.0000
vn 0.0000 -1.0000 0.0000
vn 0.0000 1.0000 0.0001
usemtl Material.001
s off
f 25//19 27//19 28//19 26//19
f 27//20 31//20 32//20 28//20
f 31//21 29//21 30//21 32//21
f 29//22 25//22 26//22 30//22
f 27//23 25//23 29//23 31//23
f 32//24 30//24 26//24 28//24
o Cube.005_Cube.007
v 0.003725 1.145354 -0.660084
v -0.000529 1.297214 -0.670139
v 0.180917 1.145354 -0.393120
v 0.180917 1.297123 -0.393120
v 0.000335 1.145354 -0.669501
v -0.000320 1.297214 -0.673283
v -0.186884 1.145354 -0.391800
v -0.186884 1.297123 -0.391800
vn 0.8349 -0.0065 -0.5504
vn 0.0036 0.0000 1.0000
vn -0.8313 -0.0087 -0.5557
vn 0.9694 0.0045 -0.2455
vn 0.0000 -1.0000 0.0000
vn -0.0000 1.0000 0.0003
usemtl Material.001
s off
f 33//25 34//25 36//25 35//25
f 35//26 36//26 40//26 39//26
f 39//27 40//27 38//27 37//27
f 37//28 38//28 34//28 33//28
f 35//29 39//29 37//29 33//29
f 40//30 36//30 34//30 38//30
o Cube.006_Cube.009
v 0.003725 1.145354 -0.660084
v -0.000529 1.297214 -0.670139
v 0.180917 1.145354 -0.393120
v 0.180917 1.297123 -0.393120
v 0.000335 1.145354 -0.669501
v -0.000320 1.297214 -0.673283
v -0.186884 1.145354 -0.391800
v -0.186884 1.297123 -0.391800
vn 0.8349 -0.0065 -0.5504
vn 0.0036 0.0000 1.0000
vn -0.8313 -0.0087 -0.5557
vn 0.9694 0.0045 -0.2455
vn 0.0000 -1.0000 0.0000
vn -0.0000 1.0000 0.0003
usemtl None
s off
f 41//31 42//31 44//31 43//31
f 43//32 44//32 48//32 47//32
f 47//33 48//33 46//33 45//33
f 45//34 46//34 42//34 41//34
f 43//35 47//35 45//35 41//35
f 48//36 44//36 42//36 46//36
o Cube.007_Cube.010
v 0.003725 1.145354 -0.660084
v -0.000529 1.297214 -0.670139
v 0.180917 1.145354 -0.393120
v 0.180917 1.297123 -0.393120
v 0.000335 1.145354 -0.669501
v -0.000320 1.297214 -0.673283
v -0.186884 1.145354 -0.391800
v -0.186884 1.297123 -0.391800
vn 0.8349 -0.0065 -0.5504
vn 0.0036 0.0000 1.0000
vn -0.8313 -0.0087 -0.5557
vn 0.9694 0.0045 -0.2455
vn 0.0000 -1.0000 0.0000
vn -0.0000 1.0000 0.0003
usemtl None
s off
f 49//37 50//37 52//37 51//37
f 51//38 52//38 56//38 55//38
f 55//39 56//39 54//39 53//39
f 53//40 54//40 50//40 49//40
f 51//41 55//41 53//41 49//41
f 56//42 52//42 50//42 54//42
o Cube.008_Cube.014
v 0.507569 1.145354 0.029860
v 0.508645 1.297214 0.030501
v -0.177854 1.145354 -1.042384
v -0.177854 1.297123 -1.042384
v 0.894390 1.145354 0.029860
v 0.895032 1.297214 0.030501
v 0.189950 1.145354 -1.042384
v 0.189950 1.297123 -1.042384
vn -0.8424 0.0018 0.5388
vn 0.0000 0.0000 -1.0000
vn 0.8357 -0.0006 -0.5491
vn 0.0000 -0.0042 1.0000
vn 0.0000 -1.0000 0.0000
vn 0.0000 1.0000 -0.0001
usemtl Material.001
s off
f 57//43 58//43 60//43 59//43
f 59//44 60//44 64//44 63//44
f 63//45 64//45 62//45 61//45
f 61//46 62//46 58//46 57//46
f 59//47 63//47 61//47 57//47
f 64//48 60//48 58//48 62//48
o Cube.004_Cube.013
v -0.196871 1.145354 -1.042384
v -0.195796 1.297214 -1.043025
v -0.882294 1.145354 0.029860
v -0.882294 1.297123 0.029860
v 0.189950 1.145354 -1.042384
v 0.190591 1.297214 -1.043025
v -0.514490 1.145354 0.029860
v -0.514490 1.297123 0.029860
vn -0.8424 0.0018 -0.5388
vn 0.0000 0.0000 1.0000
vn 0.8357 -0.0006 0.5491
vn 0.0000 -0.0042 -1.0000
vn 0.0000 -1.0000 0.0000
vn 0.0000 1.0000 0.0001
usemtl Material.001
s off
f 65//49 67//49 68//49 66//49
f 67//50 71//50 72//50 68//50
f 71//51 69//51 70//51 72//51
f 69//52 65//52 66//52 70//52
f 67//53 65//53 69//53 71//53
f 72//54 70//54 66//54 68//54
o Cube.009_Cube.015
v 0.003725 1.145354 -1.344876
v -0.000529 1.297214 -1.354931
v 0.180917 1.145354 -1.077912
v 0.180917 1.297123 -1.077912
v 0.000335 1.145354 -1.354293
v -0.000320 1.297214 -1.358075
v -0.186884 1.145354 -1.076592
v -0.186884 1.297123 -1.076592
vn 0.8349 -0.0065 -0.5504
vn 0.0036 0.0000 1.0000
vn -0.8313 -0.0087 -0.5557
vn 0.9694 0.0045 -0.2455
vn 0.0000 -1.0000 0.0000
vn -0.0000 1.0000 0.0003
usemtl Material.001
s off
f 73//55 74//55 76//55 75//55
f 75//56 76//56 80//56 79//56
f 79//57 80//57 78//57 77//57
f 77//58 78//58 74//58 73//58
f 75//59 79//59 77//59 73//59
f 80//60 76//60 74//60 78//60
